<svg width="30" height="29" viewBox="0 0 30 29" fill="none" xmlns="http://www.w3.org/2000/svg">
<path d="M28.9749 23.216L23.9072 18.3102L20.0092 16.7512C21.3071 14.9644 22.0025 12.8328 22 10.6485C22 4.7769 17.0654 0 11 0C4.93455 0 0 4.7769 0 10.6485C0 16.5202 4.93455 21.2971 11 21.2971C13.276 21.2996 15.4961 20.6148 17.3511 19.3382L18.9574 23.1015L24.0249 28.0075C24.3499 28.3222 24.7358 28.5718 25.1604 28.742C25.5851 28.9123 26.0402 29 26.4998 29C26.9595 29 27.4146 28.9124 27.8393 28.7421C28.2639 28.5719 28.6498 28.3223 28.9748 28.0077C29.2998 27.6931 29.5576 27.3196 29.7335 26.9085C29.9094 26.4974 30 26.0568 30 25.6119C30 25.1669 29.9095 24.7263 29.7336 24.3152C29.5577 23.9042 29.2999 23.5306 28.9749 23.216ZM2 10.6485C2 5.8446 6.03749 1.9361 11 1.9361C15.9625 1.9361 20 5.8446 20 10.6485C20 15.4525 15.9625 19.361 11 19.361C6.03749 19.361 2 15.4525 2 10.6485ZM27.5606 26.6385C27.2791 26.9104 26.8976 27.0632 26.4999 27.0632C26.1022 27.0632 25.7208 26.9104 25.4393 26.6385L20.6535 22.0057L19.1601 18.5065L22.7749 19.9522L27.5607 24.585C27.8416 24.8575 27.9993 25.2268 27.9993 25.6118C27.9993 25.9968 27.8415 26.366 27.5606 26.6385Z" fill="#002653"/>
</svg>
