<svg width="45" height="45" viewBox="0 0 45 45" fill="none" xmlns="http://www.w3.org/2000/svg">
<path d="M40.1786 0H4.82143C3.54271 0 2.31636 0.507971 1.41216 1.41216C0.50797 2.31636 0 3.54271 0 4.82143L0 40.1786C0 41.4573 0.50797 42.6836 1.41216 43.5878C2.31636 44.492 3.54271 45 4.82143 45H40.1786C41.4573 45 42.6836 44.492 43.5878 43.5878C44.492 42.6836 45 41.4573 45 40.1786V4.82143C45 3.54271 44.492 2.31636 43.5878 1.41216C42.6836 0.507971 41.4573 0 40.1786 0ZM38.5323 30.8742L37.0256 37.4032C36.949 37.7352 36.7623 38.0314 36.4957 38.2435C36.2292 38.4557 35.8987 38.5713 35.558 38.5714C19.4866 38.5714 6.42857 25.5425 6.42857 9.44196C6.44053 9.10452 6.56048 8.77982 6.77077 8.51564C6.98106 8.25147 7.27059 8.06176 7.59676 7.97444L14.1258 6.46775C14.2372 6.44419 14.3505 6.43108 14.4643 6.42857C14.7556 6.44328 15.0378 6.53571 15.2813 6.69627C15.5249 6.85683 15.7211 7.07966 15.8494 7.34163L18.8628 14.3729C18.9366 14.5625 18.9777 14.7632 18.9844 14.9665C18.9598 15.4125 18.7615 15.8312 18.4319 16.1327L14.626 19.2465C16.9321 24.1342 20.8658 28.0679 25.7535 30.374L28.8673 26.5681C29.1688 26.2385 29.5875 26.0402 30.0335 26.0156C30.2368 26.0222 30.4376 26.0633 30.6271 26.1372L37.6584 29.1506C37.9205 29.2788 38.1434 29.4749 38.304 29.7185C38.4646 29.9621 38.5569 30.2443 38.5714 30.5357C38.5694 30.6496 38.5563 30.7629 38.5323 30.8742Z" fill="#004D8E"/>
</svg>
